<mxfile host="app.diagrams.net" agent="Mozilla/5.0 (X11; Ubuntu; Linux x86_64; rv:136.0) Gecko/20100101 Firefox/136.0" version="28.0.7">
  <diagram name="Page-1" id="TPYtHxOfaqZPO-Ofn6TL">
    <mxGraphModel dx="951" dy="406" grid="1" gridSize="10" guides="1" tooltips="1" connect="1" arrows="1" fold="1" page="1" pageScale="1" pageWidth="827" pageHeight="1169" math="0" shadow="0">
      <root>
        <mxCell id="0" />
        <mxCell id="1" parent="0" />
        <mxCell id="ajrHWoRtGCCCD4pksy_T-4" value="&lt;div&gt;&lt;font style=&quot;font-size: 10px;&quot;&gt;Collected Metrics&lt;/font&gt;&lt;/div&gt;" style="text;html=1;align=center;verticalAlign=middle;resizable=0;points=[];autosize=1;strokeColor=none;fillColor=none;" vertex="1" parent="1">
          <mxGeometry x="150" y="290.5" width="100" height="30" as="geometry" />
        </mxCell>
        <mxCell id="ajrHWoRtGCCCD4pksy_T-13" value="" style="edgeStyle=orthogonalEdgeStyle;rounded=0;orthogonalLoop=1;jettySize=auto;html=1;" edge="1" parent="1" source="ajrHWoRtGCCCD4pksy_T-5" target="ajrHWoRtGCCCD4pksy_T-12">
          <mxGeometry relative="1" as="geometry" />
        </mxCell>
        <mxCell id="ajrHWoRtGCCCD4pksy_T-5" value="" style="shape=image;verticalLabelPosition=bottom;labelBackgroundColor=default;verticalAlign=top;aspect=fixed;imageAspect=0;image=data:image/png,iVBORw0KGgoAAAANSUhEUgAABp0AAAG8CAIAAACjdvrlAAAACXBIWXMAAC4jAAAuIwF4pT92AAAgAElEQVR4nOzdf27bdp7/cc5oVGgqKGLGSOCBkYhFMEWB/UPsCcycwJwTiD6BlRNYPkHkE1g6QagTRD5BJeC7wKKDoFQDY40E3lAVNCuMoJ3vH0xdVYkd/xD1fvPD5wOLQXd3UH3aiJL44vv1+fzh/1kAAAAAAAAAMuaP0gsAAAAAAAAAcGvkegAAAAAAAED2kOsBAAAAAAAA2UOuBwAAAAAAAGQPuR4AAAAAAACQPeR6AAAAAAAAQPaQ6wEAAAAAAADZQ64HAAAAAAAAZA+5HgAAAAAAAJA95HoAAAAAAABA9pDrAQAAAAAAANlDrgcAAAAAAABkD7keAAAAAAAAkD3kegAAAAAAAED2kOsBAAAAAAAA2UOuBwAAAAAAAGQPuR4AAAAAAACQPeR6AAAAAAAAQPaQ6wEAAAAAAADZQ64HAAAAAAAAZA+5HgAAAAAAAJA95HoAAAAAAABA9pDrAQAAAAAAANlDrgcAAAAAAABkD7keAAAAAAAAkD3kegAAAAAAAED2kOsBAAAAAAAA2UOuBwAAAAAAAGQPuR4AAAAAAACQPeR6AAAAAAAAQPaQ6wEAAAAAAADZQ64HAAAAAAAAZA+5HgAAAAAAAJA95HoAAAAAAABA9pDrAQAAAAAAANlDrgcAAAAAAABkD7keAAAAAAAAkD3kegAAAAAAAED2kOsBAAAAAAAA2UOuBwAAAAAAAGQPuR4AAAAAAACQPeR6AAAAAAAAQPaQ6wEAAAAAAADZQ64HAAAAAAAAZA+5HgAAAAAAAJA95HoAAAAAAABA9pDrAQAAAAAAANlDrgcAAAAAAABkD7keAAAAAAAAkD3kegAAAAAAAED2kOsBAAAAAAAA2UOuBwAAAAAAAGQPuR4AAAAAAACQPeR6AAAAAAAAQPaQ6wEAAAAAAADZQ64HAAAAAAAAZA+5HgAAAAAAAJA95HoAAAAAAABA9pDrAQAAAAAAANlDrgcAAAAAAABkD7keAAAAAAAAkD3kegAAAAAAAED2kOsBAAAAAAAA2UOuBwAAAAAAAGQPuR4AAAAAAACQPeR6AAAAAAAAQPb8SXoBaSl7XtnzpFcBpGLa70/7felV4Na0fSjNBoNFHEuvAqkr2HbJdaVXYSA+h5EoOs5XjiO9CtMs4ng2GEivAvKKjvMwCAQX8KHTmUeR4AI2rOL7f1bzm+FdqyW9BNyakrfQv6Io7nSkV7E5Jud6jw4PpVcBpIX7ycwpe57z+rX0Kn7n/dERP5jyoOS62t57ppqeniZ/8X+/RhKX2QQxusEeBgG/OTdgMR5fJn3zKEqiln9F0TyKCAEN9pXjyF5f034/V7nePIqevnolvYrf8Es1W4qOs9PpFKpV6YVY0fPn0kvYKGNzPQBQxRZ92vxZdhDwawlYo/Lu7uVfV/b2Pv0vzIbDJID4vzie9vuEEcDNFarV3y6xpWttWZKt//PXi+tfv8Z/AG5oNhi8PzpS8qzi0eHhL2HIF2WGKAn1Lo6P8zYEQ64HAKkr2HbF96VXsapYq5U9L29fe4CgUr1u/Rr/Xd41zYbDeRTNBoP/HQxmgwExBHBnycVV/n3qNz09TS6x2WDAVx7wRe9arYrvJ19Y4nY6nTcKSp24ia1ms3zFQ5dNmo9G7/M3uECuBwCpq/i+hodXn7KDgJscQFapXi/V65fzfUnZ8J/9PlupAmtR3t21dnetRiP5X2fD4WXGxxwQ8FlnQfDshx+kV2FZllWq1x+3WvRL9Cs6ziMdf0xnQZDDnU84DxcAUrfVbEov4fPsRqNg29KrAPCbpGz46PDQef36P/7972eDwXa7rXDgF8ioUr1uNxrbL18+++GH7+L4aRhuNZscLgQsS9q40qv46NHhIVeofjRwZZHrAUC6io6jpMvwWeQFgGalen3r4ODpq1f/8e9/O/3+VrNZ5OhVYE0K1Wplby/J+L6Nop1Op+L7PO4CLMt612rNhkPpVXy0k6eDTbOIBq44cj0ASJfaYb2E8uUBuFTe3d1++fLbn376Noq2223mF4A1KtZqdqPx9NWr7z58eBqGdhAQ8CHnztSc+Za0caVXgc+jgasBuR4ApEvhSbjLSvU66QCQLcVabevgIJkwetxqMcEHrFdlb2/n5OQy4JNeDiCDNi5uggauBuR6AJAitSdmLOOmBcioYq326PDw259+ejYYMF4ErN3HgC+OdzodMgXkEG1cXI8GrhLkegCQoodZiMzI9YCsK9XrOycnf4uinU6H8T1gvQrVqt1oPPvhhyRAl14OsFG0cXEVGrh6kOsBQFqKjlPZ25NexZcVqlVuVAADJOnDtz/99DQMy54nvRzANEmA/l0cP261GI9FTtDGxVVo4OpBrgcAacnEsF7iAafiAgap7O05r187/T7pHrB2hWr10eHhdx8+MB6LnKCNi0/RwFWFXA8A0pKhIbjK3h43J4Bhyru7pHtAepLxWNI95MF5sym9hI9o42pAA1cbcj0ASEXZ84q1mvQqbiFD04UAbo50D0iV3Wg8Gwxo5sJs037/4vhYehUf0cYVRwNXG3I9AEhFhob1EplbMICbS9K9nU6H6AFYu6SZ+7co4psUBnvfas1HI+lVfEQbVxANXIXI9QBg/Qq2bTca0qu4nWKtxjgPYDa70fhbFG2pqVMBJilUqzsnJ88GA75MYaRFHHM2Lmjg6kSuBwDrV8nmMRQMGgDGK1Sr2y9fOv0+JSYgDaV63Xn9ervdZjYW5lHVxv1Ls8nWlptHA1cncj0AWL+MjsPYjQb3IUAelHd3n/3wQ0Y/qQD9tg4OGNyDkfS0cQvVKm3cDaOBqxa5HgCsWcl1S/W69CruKKOThgDuIBncI80H0lCs1ZLBPemFAOukqo1b3t3lAdXG0MDVjFwPANYs021Wfh4BuVLe3f1bFDFVBKQkGdyjLQiTqGrjPmq1uL42gwauZuR6ALBmmc71SvU6u24BuVKoVp3Xr9mAHEhJqV5/NhgwDg+T0MbNGxq4ypHrAcA62UGg4VnWfWQ6lwRwN48OD7k1AlJSqFafvnrF1yuMQRs3V2jg6keuBwDrZMCvdgP+EQDcgd1oPBsM2G4PSMnOyQnpOYxBGzc/aODqR64HAGtTdBwNM+r3VKhWifaAfCrV65ykAaTHbjSI9mAM2rh5QAM3E8j1AGBtHpoShz1gGyAgr4j2gFQR7cEYtHGNRwM3K8j1AGBtjBlzq+ztUWcAcotoD0iV3Wg4tMlghGm/P+n1pFfxEW3ctaOBmxXkegCwHhXfL9Zq0qtYG2NmDwHcAdEekKry7i5TezDDWRAsxmPpVVgWbdx1o4GbIeR6ALAehnVXjZk9BHA3RHtAqijkwgy0cY1EAzdbyPUAYA0Ktm03GtKrWKdirVb2POlVAJCURHvSqwCMZTca2+229CqA+5qEIW1cw9DAzRZyPQBYAyOn24z8hwJwK6V6nZEiID1bBwd828IAtHFNQgM3c8j1AGANjJz5txsNKngA7EbDyI84QImdk5OS60qvArgX2rjGoIGbReR6AHBfJdc16cSMZRWzNg0EcDfbL19SzAfSw16WMABtXDPQwM0icj0gYxbj8QVbsShj8CNBg//RANzKkzAkdwBSUqhWn4Sh9CqA+6KNm3U0cDPqT9ILAHALi/E48jwGklUp2LbBQ22ler3kurPBQHohyLDp6an0Etaj5LoanmBLSe6Rfjb34y6jFuOxMR/RGm4mBZV3dx+3Wu+4lUWWJW3cp69eSS/EsiyrvLtb8f0JifmN0cDNLnI9IEvOm01jfr4bo+L7Zt/q20FwztQe7iEytL952UtN/qLkun+0bbOzv8re3lazycy4KrPBwMhLrGDbyZZzf7TtP7uuZVlfe55levb36PDwlzDklx4yLWnjVvb2pBdiWZa10+n8w3FIiG6IBm52/eH/Sa8AUOhpGCr5Nlp2cXxMvKKQ0++bfZuxGI//i/JdlpU9z3n9WnAB//mHPwi++uYleUTRcUquW3Jdwz4fFuPxG9edR5H0QhR53Go9OjyUevXp6amRud41io7z1a/XV8l1S/W69IrWaTYcvuEMjSXiX2HR8+dEDLdVsO2/RZGGhMiyrEmvx6T5TWw1m9svX0qvwpqPRm9clyj2tpjXA1Y9brUUhnqTXo9QT6Gi4xh20/6pQrVqB0HMHiXAzSzieOUmsOS6Zc8re97XnqfkPufOkjZu3oIkqDKPonkULV9ll9eXAd/IpXqdNi6yTlUbt7K3Rxv3i2jgZh3nZgC/YweB4FP3q8yGQz0nx2NZTo6VsHn7AfcwGwwu2u2fff+/bPvN99+fv3gxGw6lF3V3yY5F0qsAfjPt99+1WpHn/ecf/hA9f35xfDwfjaQXdXePDg85xxNZNwlDPbvr7nQ6nPt0PRq4WUeuB/ym5Lrb+rYNWozHPLhQ60E+bm7Lu7vcYwBrkWR8b1z3x2++yW7A99d2m3sk6DTt98+bzR8d583332c34OMcTxiAs3GzgjNwDUCuB3xUsO2nYajhScWKt77PDso6VXy/WKtJr2JDHjKyB6zVPIouA76L42MlNz83VKzVcjKtjOyaDQZJwBc9fx53u9LLuZ3y7m6Ztjsybh5FemKapI0rvQqNaOCagVwP+Mjp9xVmNOcvXjCNrFauoi6quEBK5lF03mz+w3HO9vczNFv0l2aTMV5kwrTfPwuCH7/55v3RUYYCdMaLYICLdps2rnI0cM1ArgdYlmXtdDoKz1OLu90Lfb1gJIqOI3K+itQ9SbFW4zknkJ5FHMedzo/ZSfcK1epjHU/4gZuYR9G7VusfjpOVdK9Yq/FEDQagjasZDVxjkOsBlh0EdqMhvYpVnJWhnNTOeoL7EOdkM0FAVpLuZSJ6sBsNRvaQLYs4TtK9TDRzic5hANq4atHANQm5HvKu7Hk7JyfSq1i1GI8j9lXRTWpvqYt2OxZ62Gg3GvQXgM1IoodJrye9kC8gd0AWLeL4LAjefP+98oNrGNmDGWjj6qSkgfv+6IgG7v2R6yHXio7zJAylV7EqCfV4aqFZ2fNEdmOcj0azwWAShlKDPNxgABuziOOfff/nv/9d8+AecT+yazYYvHHd90dH0gu5DtE5zEAbVxslDdzZcPiOT7l1INdDfqk9APe82eQAXOWk4q1kv8VFHE+E8mhyPWDDJmH4D8fRPFXEwbjItHet1pvvv1eSOHyKzW1hBtq4qqhq4EovwRDkesgvnWdlXBwfS7UscUMF25b6NfDLr3Ge1JukVK+XXFfkpYHcWsTxG9dVux0YcT+ybjYYaE7Pic5hBtq4euhp4DLLsi7kesipx62WyGGm15v0euf8elOv4vsi34WTXm8eRclfT/t9qRMzucEARJwFgc5oj3kiGGARx5Hn6Yz2yru7HFADM9DG1YAGrpHI9ZBHdhA8OjyUXsUqDsDNCqlg65ffd2+lRva4gQekqI32HvLlhezTHO3xRA1moI0rjgauqcj1kDsl191ut6VXsWoxHnPCdyYUHUekvr0Yj1f21PsglOsVqlVqd4AUndFeZW8vz4UmGENttPcgf+kDTKWqjfvXdjtvX140cE1Frod8UXtWxlkQ8OmWCVLPzCdhuBL7zqNI6ocRuR4g6CwIFOYOfCzADMk51Eqqgpdou8MkejYdKtZqSobXNoMGrsHI9ZAvTr9frNWkV7Hq/MULqeNNcVtS966fbd1KVXHZ6weQFXmettyBXA/GmEfRW30hGiN7MMZsMHh/dCS9io+2Dg7Knie9ik2ggWs2cj3kiM4DcONu90JfLxifZQeByLDnfDSa9vuf/t8nYSh1b892WoCgpC0ovYrfKdXreWszwWDTfv/8xQvpVfwO83owybtWS8/geU7OxqWBazZyPeSFHQR2oyG9ilWz4VDPLDq+SOpp+VVzeYs4lpr0ZDYHkKVq3iFB7gCTqNoFzLKsQrWak6ki5ISeoa08tHFp4BqPXA+5UHLdnZMT6VWsWozHkedxVkZWFB2nsrcn8tLXHJEhVcVlrx9A3LtWS1XuQOgAw7xVttEeX7swiaqnU2a3cWng5gG5HsxXdBzncx1GcYR62SLVPJ2ens6j6Mr/b78/H402uJzfsNcPIE7VxDehAwyziOP3Om6GEwbnDsgn2ribQQM3D8j1YDi9B+Du7/PRli2qTsy41X8hJXajYeoPICArVM07FKrVkutKrwJYJ1VtXHaxhHn0DHCZ2salgZsT5How3Ha7rfCsjIvjY6ksBndT9jyRk5QX4/EXd9C7pqWbNnbZA8RdtNt6qoLkejCPqpG9rxnZg1lUPZ0yr41LAzc/yPVgssetlsKzMqanp6qaU7gJqQBrEoZfLGvPo0hqmoBcDxC3iOP/UXOoumF3RIBlWdN+X8/I3p+JzmEc2rjpoYGbH+R6MFbF9x8dHkqvYtVsOHzLDkRZU7BtqYD4hnOdUuOfpXqd8RxAnJ6RPT4QYCQ9I3vM68FIeoa5TGrj0sDNFXI9mKnkujv6iq6L8fgsCDgrI3OkNoOfj0bTmx35MglDqbv6LYZPAWl6RvYUbnwB3J+ekT2icxiJNu7a0cDNG3I9GEjvWRlBwBByFklFV798aWe9S4s4/uI2fCnhBExAgwsduZ5F7gBDKbnECtVq0XGkVwGsH23c9aKBmzfkejDQkzAUOeLgeucvXkglL7iPkutKTaDc6i5CqopbqFbZZQ8Qt4jjuNuVXoVlWVbW74WAz5qE4Xw0kl6FZVnWV+R6MJSe/cez3salgZtD5HowzU6no+GDbEXc7Sp50ovbkhrWmw2H8yi6+X9/2u9L3XKQ6wEa3HzCN1UG1JeAz1JyiTESC1NN+/2L42PpVXyU3TYuDdx8IteDUewgUHgA7mw41PMACrcl1TO9QxAsNbJX3t2lFgSIE9xnE8gDqS/ZFYzEwmDvWy0lg7FWZtu4NHDziVwP5ii57s7JifQqVi3G48jzOCsjo+wgkPpqvENr+4PcLcdDnsgBCmjY7YHzOmGq2WCgIXHgEoPBFnGsZ8gri21cGri5Ra4HQxQdx7nZyaEbRqiXaVIN07jbvcPbZh5FUgf2UcUFNFDSEwRMxSUGpE1bGzdDzfeCbSsJIvWEs/lBrgcT6D0Ad3+fCeTsKjqO1COvO985SLWEirUaB+MC4v6p8vkWYIypgkuMczNgPG1tXOkl3BQN3Dwj14MJttttqRNLrxF3u0q2YsHdSHVL56PRnct0ghtsPSDXA6Qt4ng2HMquQUMDCEiJhui8WKtJLwFIl6o2bqlef6xjCO56Fd+v7O1Jr4IGrhhyPWTe41ZL4VkZ09NTPV9IuBupbul9aj6LOJbaYMtuNLK4uzBgGB6SA+lZxLGeMSLAYKrauI8OD5W3cQu2rWSukPtfKeR6yLaK7z86PJRexar5aPSW2aWMq/i+1CPxO5yEu0xwSpRd9gBx5HpAqrjEgM2gjXtzNHBBrocMK7muwg/ZxXj8s+9zVkbWSbVKZ8PhPIru83eY9vtSP4PI9QBx/KQGUsUlBmwGbdwbooELi1wP2ZXMG2t4NLHiLAj4zZd1BduWKnevZdpOamSvVK8r7ykAxvvX/R4MALgelxiwMbRxv4gGLhLkesiqJ2Go8KyM90dHUrubYY0E587WEsl9kPuC32o2pV4agGVZ9xz4BXA9LjFgk2jjXk/JmAsNXHHkesik7XZb4Yl7cbfL+LEZpMKpSa+3lgb3PIqmp6f3//vcQcX3OT0DAAAA90cb9xo0cHGJXA/ZYwfB1sGB9CpWzYbDcyaVjFByXakTM9Y4ZydVxS1UqxUOjQFEScX6QB5M+33pJQD5Mu33J72e9Co+0tPGpYGLZeR6yJiS6+6cnEivYhVnZZhEalhvMR6vscQ9CcPFeLyuv9utcHoGAAAA1uUsCKR+1n5KSZpGAxfLyPWQJQXbdlQ+Jo08j/1WzFCwbalxs/VO2C3iWGqrx/LubtFxRF4aAAAAhqGNu4IGLlaQ6yEzklBPw3OJFWf7+zymMEbF96XeY2tvzkpVcS1OzwAAIDVlz5NeArBpkzCkjZuggYtPkeshM7bbbYUH4MbdrmB6grWT6pDOhsO1p8PTfl/qBLEHbLEHAACA9aGNe/nSGiZdaOCqQq6HbNhqNu1GQ3oVq6anpzymMEnRcaTOWU4pHZYKnYu1GqdnAAAAYF1o41o0cHEFcj1kQMX3t1++lF7Fqvlo9JbkwiyC7dGUArg1HrB7Ww/V/PACAMAknMmL3Mp5G5cGLq5CrgftSq6r5PNrGQfgGkmqhDvp9VJ6L82jaHp6msbf+Ysqe3sF2xZ5aQAAABhJVRt3u93e5MvRwMVVyPWgWvJQQsPn14qzIODjzDCCJ2akOlUnuP+jVE4KQNBsOJReAgDAWKrauOXd3Y3VfWjg4hrkelDtSRgqPCvj/dHRJAylV4E1k+qNLsbjVN9OkzCUeqrJqbhADjHJDgBIla42bqtVdJy0X4UGLq5Hrge9ttttqUMMrhF3uzyjME/RcaSegKWdES/iWCqGLtZqG952BAAAs+lpIAKC9LRxC9XqBhI3JQ02GrhqketBKTsItg4OpFexajYcnjOCZKIHckegXKS/MYdgFZeRPSBv/o95PSBN3FQDVs7auEoauNPTU6Zb1CLXg0Yl1905OZFexSrOyjCYVPw0H4028AN92u/PR6O0X+WzKr7P6RnAhn2VfiHoGoQOMNsGCncAbmIShlKnw30qvTaukgbuYjzWE6TiU+R6UKdg206/L72Kz3jr+/Mokl4F1q/secVaTeSlNzCsl5Aa2StUqxW5WUggn6Q+0IA8kM3NLaJzYEke2rhaGritFjfCmpHrQR2n39fw4bXibH9/qjJtxP0JHtv6y6Z2vkv1yN3rcSousEniw0R8V8Js4pcYVXfg0jyK3qtphqbRxtXTwN3YLALuhlwPuux0OgoPwI27XcEdypCqgm1LDZRNer2NPfiaR5FUVaG8uyt+FwTkh/gwEbtVwGzilxjRObDsot02tY1LAxc3R64HRbaaTbvRkF7FqtlwyGeZwSq+LzUfurFhvQSnZwB5UPY82QVQEoTZvpa+xIjOgRWmtnFp4OLmyPWgRdnztl++lF7FqvloFEn/gEOqpCKnxXi84aBtEoZSP3oEjxsG8qbkuoKvPhsOBV8d2ADZS8wiOgc+YWQblwYuboVcDyqUXPfJZmeXboIDcI1Xcl2p3vdk42/4RRxv/kUTxVqN0zOAzZAdJiJxgNlKris7PqOnbwioYlgblwYubotcD/KSTy4NY8YrzptNblHMJnikg8izL8Eq7kN+FgDpEw8d+NKE2ei5A2qZ1MZVcmtMAzdDyPUgT+dZGe+Pjjgrw3hSud58NBL5aT7t9+ej0eZf17Ksyt5ewbZFXhrID/HOOzv6w2zis+fkesBVjGnj0sDFHZDrQdh2u63hk2vFpNd7p+aLASmxg0DqUZhgZCz40oLTkUBOyIYOi/GY0AEGK9h2eXdXdg1E58A1DGjj0sDF3ZDrQZIdBFsHB9KrWMUBuDkhONjyQe4LW/ClORUXSFXRcWSH3/9J4gCjiQ/rzUcjOnHA9bLexqWBi7sh14OYkutu6xvu5ayMnCg6jtSg6PT0VPCbch5FUk8yi7Wa+DGCgMHEo3MmiWA2LjFAv0y3cWng4s7I9SCjYNtOv6/hccSKt77P04k8EDzGQXzfRsEFiN8UAaYq2LZ41f0XfefaA+tS9jzxzaC5xICb0NbGveEG0zRwcR/kepChM9Q729/nWWhOSN0AL8bjifTv8kkYSjUUKr7P6RlAGiq+L/utSkMQZhPPzS2q7sCNnat5kHzzNi4NXNwHuR4E6DwAN+52xQepsBllzyvWaiIvPQlD8Zb3Io6lssVCtSq+PxFgpMfStSMmiWCwouPYjYbsGia9nvjvByArZoPB+6Mj6VV8VNnb++KvXxq4uCdyPWzaVrMp/tvoU5yVkSuCT92VZMeciguYxA4CqWcVl5R8uAFpEM/NLaJz4JbetVqz4VB6FR/tdDrXFFZo4OL+yPWwUWXP2375UnoVq+ajUeR50qvAhhRsWypZno9GSore035/PhqJvHR5d7foOCIvDRipYNviocN8NJoNBrJrAFJScl0ND6TFN/EAMkdPSnV9G5cGLu6PXA+bU3LdJ/p+lHAAbt4wrJfg9AzADFvNpviwHrUdGGxbwds77nb5pQrcVibauDRwsRbketiQZMBYw7OIFefNJlMGuSKY633QlOsJLuYBW+wBa1Jy3UeHh9KroCEIY201m+XdXelV6HouCGSI8jYuDVysC7keNkTnWRkXx8f8VMqVkutKvQ9nw6Gq4fZ5FE1PT0VeulircXoGsBYa7gcmvZ6qDzdgXYqO80i65G5p2sQDyCI9idWnbVwlUy80cA1ArodNeNxqaRgwXjHp9fQcgo7NEGyAKhxuFwy1H6r5jQVk1+NWS8MDM4UfbsBaKLnlfqcgWwSyS20blwYu1ohcD6mzg0BDS2gFB+Dmk+CYmMIdrydhuBiPRV66srd3zblgAL6o7HkavltnwyGTRDDS41ZLQwN3MR4r/P0AZIvCNi4NXKwXuR7SVXJdDfsNr0g+wtiBOG/sIJB68K5zx+tFHAveLQhudAhknZ5zqHjIDyPpeSb9P+22wt8PQOboSa+SNq6ScWAauMYg10OKCrb9NAw1fGateOv7nJWRQ4JBktpN5TkVF8gcPedQzUcj9qiFefQ8k16Mx0TnwFqoa+PSwMVakeshRU6/X6zVpFex6vzFC0pDOVR0HKlCzXw0Uluimfb789FI5KWLtVrZ80ReGsiugm07/b6GbfUstv2CiUqu6/T7GnJzi2E9YK1UtXHF0cA1DLke0qLzANy42+W5RD4JHtSgdlgvIThuQxUXuBVVoR7DejCPqlCPYT1g7Tgy8RINXMOQ6yEVdhDYjYb0KlZxVkaeCUZIyn+Xf5C7M6/4PqdnADekKtSzNO1VBKyFqlDPYlgPSBZe+QsAACAASURBVMG03784PpZehTwauOYh18P6lT1v5+REehWrFuNxROkvryq+L1UJnw2Hyp+GzaNoenoq8tKFalXwhGIgQ5LEQU+oNz09ZUcLmKTi+6pCvfloRM8dSMP7VktqCxolaOAaiVwPa1Z0HCWH9C1LQj0ee+aWYAk3E0/DOD0D0CxJHPSEehbDejDL41br6atXekI9y7L+my9HIB2LOM75VxgNXCOR62Gd1B6Ae95scgBubhVsW/DMKbUnZiybhOFiPBZ56VK9XnQckZcG9CvY9na7rS1xeH90xC0BzFB0HKfff3R4KL2Q35n0epn48QBkVJ7buDRwTUWuh3XSeVbGxfExe3vnmeDOenG3m4kp0UUcC95CMLIHfFbZ854NBlsHB9IL+Z35aMQtAcyw1Ww+GwzKu7vSC/mdxXjMsB6Qtny2cWngGoxcD2vzuNUSnIq6yqTX4+SjnBOMjZSfhLuMU3EBPYqOs9PpOK9fS20Meo2zIMjE4wrgGmXPc/r97ZcvVU3CJqjIARuQzzYuHy8GI9fDethBoK3FYHEALiyr5LpSN8aL8ThDPZppvy/13JLTM4BLBdt+3Gp9+9NPCs+Utyzr/dERx2Ug04qO8zQMndevtY3pJSa9HvOwwGbkrY1LA9ds5HpYg5Lrbuv7mEgmjRkryDnBYb3Mtb8FFyx4sAmgRDKj97coUviQLDEbDjmgE9lV9rynYfjtTz8pLJckqMgBG5afNi4fL8Yj18N9qT0r463vc1ZGzhVsW3AQLHO53ge5BVf29jg9A7lV8f0kbrAbDYVfponkWHnpVQC3VrBtOwieDQbO69dqEz3r10uMp9HAJuWnjUsD13jkergvp99XuAHQ+YsXdIVQ8X2pm+TZcJi5WHkeRdPTU6lXf0AVFzlT9rydTue7OH766pXmuMEicUAGJQ/2nobhdx8+7JycKDzVbcVZEGTuZwNggDy0cWng5sGfpBeAbNN5AG7c7fLhBYsS7u3FnY7UlkNbzSaXLYyXZA1lzxN86nBbSahH4oBMKDrOg+QS052Vrzjb38/QhryAYd63Wg98X+GcylrQwM0Jcj3cnR0ECjf2ng2HHIALy7KKjiMYOmc015uE4aLdFokbirVa2fMYs4V5Sq5bct2y55VcV+GTsOsR6kG/5OJK/jOLd+Zn+/sZ/c0AmCFp4zqvX0svJBU0cHOCXA93VHLdnZMT6VWsoiuES4LDepNeL6NvwkUcT8JQKq+3g4BcD1lX9rzkP4uOU3QcnWdu3hChHrQp2HbJdf9o23923ZLryj7AWwtCPUCDab8/6fWyNed7EzRw84NcD3dRdBxH5e03oR4u2XIz54IHUNxf3OlI5XoV3y/YNpcw9Ci5bsG2P/v/Kv96iESS31mWlekI71OEetiA8hWHsSTJXfLXSZBXsO2sR3grknIc9VtAibMg+FsUZWWLjJuggZsr5Hq4NbUH4J7t73MHgoTg3lWL8TjTP9On/f58NBKpMhWq1YrvM7lgnv/497+ll4DbmQ2HPCfLivLuLpdY5pCbA9okbdynr15JL2RtaODmCufh4ta2222Fj0wvjo+JA3DpodzjKQPeh4L/CILtaQCJuNsl1APSMxsO37guoR6gzSQMJ72e9CrWgwZu3pDr4XYet1oKz8qYnp5yVgYuFR1HcIMMA3I9wR5xqV5PKo0ARJy/eHEWBIR6QEqS3JwhGkCnsyBYjMfSq7ivxXj81velV4GNItfDLVR8/9HhofQqVs2GQz65sOyB3PthPhoZ8AR+HkXT01OpV2dkDxAxH43efP89j/eBlCzG47P9fXJzQLOkjSu9ivvicyaHyPVwUyXX3dE3iJRsCMonF5YJBkPG3BILTh0KHngC5Fbc7VIMBNKT7FlpwEQ/YLyst3EnvV6md/rG3ZDr4Ub0npURBNyHYFnZ80TOfEj8Ysr36CQMpWoIyekZIi8N5NB8NIqeP+cJGZCSxXj8/uiI3BzIkOy2cTkDN7fI9XAjT8JQMCu5yvmLFzyOwArBaa9Jr2fMjjmLOBa8uASPPQFyJYkbpv2+9EIAM01PT9+47rtWS3ohAG4hu21cntLlFrkevmyn0ynv7kqvYlXc7RrTecS6FGxb8FwXY4b1EoJ1ocreHqdnAKma9Ho/fvPNu1aLGwAgDckkLEdkABmVxTYuDdw8I9fDF9hBoPAA3NlwyAG4+JRgf3MxHhu2b86035+PRlKvLnj4CWC26elp9Pz5z75P3ACkYT4ane3v/+g4TMICmZatNi4N3Jwj18N1Sq67c3IivYpVi/E48jxGDPApwRMzjHw+JphUciousHaTXi8ZICJuANJwmegZ9pwPyKdstXFp4OYcuR6uVHQcR+VPf0I9fFbJdUv1utSrG9kK/yB3Z1Ks1cqeJ/XqgEkW4/HF8fGP33zzs++T6AFpSEJzEj3AMJMwnJ6eSq/iy2jg4k/SC4BSeg/A3d/nQDF8luCJGfPRyMi35TyKpqenUttr2kFABgHcx6TX+yUMCRqAlMyGw7jT+SUMabUDpjoLgmeDgcKb4ks0cGGR6+Eq2+224OjTVS6Oj7k/wVUEcz0jh/USsdyxORXfL9g2w7nArSzG43/2+7+E4SQMuXyANExPTydhSJwH5ME8it63WtsvX0ov5Eo0cGGR6+GzHrdaCs/KmJ6eclYGrmIHgeCTNMNOwl02CcNFuy3y77ZQrVZ8nygf+KIky5sNBr+EoZGzw4C46enpP/v9/x0M/tnvcwsN5MpFu13xfann3NejgYsEuR5WVXz/0eGh9CpWzUejt5yPiasJHp86PT01+In9Io4nYSgV9G81m+R6wGfNhsNpvz8Jw9lgQMoArF2yw8ZFu/2vKDL4Wx7ATehs49LAxSXOzcDvlFx3R99d9GI8/tn3uW/BVYqOU9nbk3p144MnwX/AUr1edBypVwc0K9XrWwcHT8Jwp9PZajZLriu9IsAoxVqtsrfnvH690+k8brU4ygnIs6SNK72KVTRwcYlcD7/Re1ZGEFAswjUeyj2qWozHxk+/T/v9+Wgk9epbtO+BqxWq1cre3vbLl89++OG7OH4ahnYQFGxbel2AOcq7u48OD53Xr//j3/9+GoZbzSYPnIAcumi3VZ2NSwMXy8j18JsnYVis1aRXser90RGfWbie4IkZOdmZXnBkT/APF8iWJOPbOTn57sOHZ4MB6QOwdkmM/u1PP3GJATl0FgSL8Vh6FR/9i/0BsIRcDx9tt9sKdwONu913+maeoUrF9wXzaONLuIkPcv+YyekZUq8OZFSpXk/Sh2SCT3o5gGkuL7Ek4GNIFsiDeRTp6ZBtHRywPwAukevBsizLDoKtgwPpVayaDYccgIsvEjwxYz4aTft9qVffpHkUCVYPBHvWQNZ9nOCL4+12m9kiYO2SgO+7Dx92Oh3usQGzaTsVd6fT4aECEuR6sEquu3NyIr2KVZyVgZso2LbUUa1Wbob1EoL/sJW9PfII4D4K1erWwcG3P/3k9PtED0Aa7EbDef362WDAhCxgpIJtazteslirPaLZBsuyyPVQsG1H5cBR5Hlzdg3Al8j+ehZsp27eJAwFtxRhZA9Yi/LuLtEDkJ5Svb5zcvJtFHGJAYbZ6XQUHi9JGxcJcr1cS0I9hZ9QZ/v7ejYvgGaCv5unp6e5ip4XcSx4gg03SMAaXUYPbF4JpKFYq5HuASap+H5lb096FZ+nbYoQIsj1cm273S7V69KrWBV3u7mqN+LOSq4r+AbO4btU8B+5WKvxNBJYr2Kt9vTVK5q5QEou0z0CdCDTFDZwlxVrtce0cXOPXC+/tppNwY3JrjI9PT3j2SZuZkvuWJXFeCw4vCZl2u/PRyOpV2fqAUhD0szd6XTYxRJIw2WAXnJd6bUAuAudDdxljw4P+YTJOXK9nKr4/vbLl9KrWDUfjd7ySBM3JvgAfBKG+TzURXBkz240OPMLSIndaDwbDHjgD6SkvLv77IcfttttvsiAbNHcwF2meaIQG0Cul0cl11V45XMALm7FDgLBR2e/5G9YLyF7VAhVJiA9hWr10eHhs8GAZ/5ASrYODp4NBnyXAVmhvIG7rFSv83Auz8j1cif5eFI4S3wWBJyVgZsTbGXOR6MclnAT8yianp5Kvbpg8xrIiVK9/uyHH7g3AFKS1HKfhiGDe4B+Ou+ar0IbN8/I9XLnSRgqPCvj/dFRboMS3EHRccq7u1KvntthvYRgFbdUr/N7BdgABveAVFX29p4NBhxZA2iWlQbusqxMF2LtyPXyZbvdFkxDrhJ3u+8YDcBtyM5tXbTbgq8ubhKGi/FY6tU5PQPYjFK97vT7XHFASoq1mvP6NbOxgE4ZauAuo42bW+R6OWIHwdbBgfQqVs2Gw3O6dbilB3J708yGw3kUSb26Bos4FpyuJWUANqZQre6cnOx0OhQGgZQ8Ojx0+n0uMUCbbDVwl9HGzSdyvbwoue7OyYn0KlZxVgbuoOL7xVpN6tVzPqyXEKziFqpVoj1gk+xGw+n3i44jvRDATOXd3b9FEffhgB5ZbOAuy+KkIe6JXC8XCrbt9PvSq/iMt76f89En3MFD0ViHjSAty5r2+/PRSOrVBac1gXwq1etstwekp1CtUnsHlMhoA3cZbdwcItczXxLqKRwkPtvfn6pMG6FZwbYFH6DF3S7jpQnBkb3K3h6jQ8CGFarVZz/8QO4ApCSpvXMrDojLbgN3GW3cvPmT9AKQuu12W+EBuHG3K5gLILtk7ypzfhLusg+dzqPDQ6lXfxgEHLaTIf/5hz+IvG7JdVPdtaroOF8tRcxFx0kS54JtK/zaXYtkQw++vlWZnp5GQseqpn2c68olXHLdP9q2ZVlfOY7gdhypenR4WHScMwJ0QEjWG7jLdjqdN0R7uUGuZ7itZtNuNKRXsWo2HPKTBXcjeBLufDSihHtpHkXT01Op87Vtcj3cwGwwkF1Aknok//m155kRRuycnJQ9jy9xWJaVduvi+r9/wbaTpO/PrvtH2y65bsl1DZiySX63c4kBm2dAA3dZ0sblB3NOkOuZrOx52y9fSq9i1Xw0knqwjKwrua7gXTHDeiviTkcq1yvWamXPo8gP5ZK36Mobtex5SQBR9ryMxnzkDtBgEcfJxbX8yC0J+5Kr7GvPy2jMl1xi580mW38Am2RGA3fZo8PDX8JQ/DEnNoBcz1gl132iL4bgAFzch+CwnkX17BOTMFy021I/gOwgINdDFk37/cu3bsG2v/a8suc9ED3m+w6I9qBTEvZdXmJFxyl7XtnzKr6frdt1u9EouW7kefxmBjbDpAbuMtq4OcG5GWZKpogV/oI5bzZ5YoC7Kdh2Re4g1NlwyFt3xSKOBYvJdqOR6tZpwAYkF9F5s/mj4/z4zTfnL17MhkPpRd2U3WiY1FeCkeZRFHc6Z0HwX7b95vvvL46PBQ9zv61Svb7dbkuvAsgFwxq4yzgbNyfI9cy00+ko3LT7/dERE0+4M9mH7bx1P0v2X4tgzgus3TyKLtrtN66bBHyZSB/sRoPcAVkxGwySDD0J+BbjsfSKvoz0HNgMnQMx6/KXZrO4dMwXjESuZ6DtdlvhFPGk12PbTtwHJVyFpv2+YPog+5YAUpIEfD86TvT8edztSi/nC7YODmSPKQduKwn4/su2z/b3p6en0sv5AqI9IG1bzabCe+c1KlSrfIwYj1zPNHYQbB0cSK9iFQfg4p6KjiM4gjrp9djg5iqCiWepXi+xYwjMNe33z4Lgx2++eX90pHm2aOfkhGgPWRR3OpHnvfn+e+UBut1o8BwLSEnRcR7lYPSkvLvLx4jZyPWMUnJdhY0YzsrA/cl+FX3gGdfVZP/lkCbAePMoetdq/cNx3h8dSa/lStvtNiE7Mmo2GCQB+qTXk17LlbZfvmTrCSANZjdwlz1qtWjjGoxczxwF23b6fYUfTG99fx5F0qtAtgnGN4vxWPB0CP3mUSTYYyLXQ04s4vhdq6U2eihUq0/DkKNskF3zKPrZ96Pnz9WeXbPT6XBPDqzXVrNZ3t2VXsWG0MY1G7meOXSGemf7+9N+X3oVyDZOzFBO8F9RoVol2kN+XEYPCk/VKNZq3DAg66b9/hvXPX/xQmHzPUnPpVcBmCMnDdxltHENRq5nCJ0H4MbdLpkI7u+haHDDe/iLJmEoeAv0gGoSciaJHi6Oj6UXsqqyt8cNAwyQnEyt8EiNUr2ucL8dIKPy08BdRhvXVOR6JthqNu1GQ3oVqzgrA2tRdBzBM6pmw+FsMJB69axYxLFgVbmyt8cPFOTNIo7Pm82f//53bVNF3DDADPMoijxP4aaWWwcHZc+TXgWQeblq4C6jjWsqcr3MK3ve9suX0qtYNR+NIn52YB0Y1ssE2X9Rsm8SQMokDN+4rqrtwLhhgEnetVrR8+fa0vOdToe9LIH7yGEDdxltXCOR62VbyXWf6NtrgwNwsUayu6eR693QtN8X3PCLLfaQW8lUkarDNLhhgEmm/X7kearS82KtludIAri/fDZwlzFcbx5yvQwr2LbOT6XzZpPqItai7HnFWk3q1Se9HvH0zQlmoMVajV4ScmsRxz/7ftztSi/kN9wwwCSzwUBbtEcbF7iz3DZwlzFcbx5yvQzTeVbGxfExI05YF9k5rF/0DcNq9kH0wmdkDzl3FgR6or1CtfpXdveHQRZxrC3a4wAN4A5y3sBdxnC9Ycj1smq73RY8TOAqk17vnA8IrEnBtgUPhFmMxyTUtzKPIsHTA+1Gg/2GkHOqor3K3h7zRDCJtmivVK9zTw7cls6umxSG601CrpdJdhBsHRxIr2IVB+BivSq+L/jqgge8ZpdsEir7hgE0OAsCPbkDHR8YJum86zlG41GrxQMt4OaUNHDfHx0J7km9jDauScj1sqfkugpn7xfj8VkQsBkZ1kj2QfSFvqtMv0kYCt7wMLkAWJYVeZ6SG4ZirUZBHoZJTqqRXsVHhWqVRiFwQ0oauNPT03etlp5RGNq4xiDXy5iCbT8NQ4Xzw299n7MysEYl1xXcPnI+GvF+voNFHAvOOZbq9ZLrSr06oEQyUiS9io8eM08E48wGg/MXL6RX8dHWwQE1OuAmNDRwkzkYy7Km/f7F8bHsYi7RxjUDuV7GOP2+4PGgVzl/8WLa70uvAkaRnfJgWO/OZKu4DAcBlqbcoVirMQgA81y025NeT3oVHz1WMIIEKKelgdtqzaPot7/WMVzPUVdmINfLEp0H4MbdLiEI1o6TcDNq2u8L/kwh1wMSF+224Dk2y/7SbDKyB/OcBYGSjfbsRoNZG+Aaehq4y7fMizjW08at7O2xS3XWketlhh0EgmeDXoWzMpAGOwgER+Unvd7lwzTcgeDIXqFaJdoDEkpyh0K1yt0CzKPqnpyRPeAaqhq4y1S1cXc6HR7CZRq5XjaUPW/n5ER6FasW47GezYNhEob1Mu2DaBX3AQkCYFmWZc2j6H90TNMTOsBIkzBUMhVrNxrckAOfpbCBu/p/V9PG5WzcTCPXy4Ci4zzRFzQkoR4H4GLtio4j+AW8GI9ld4gzwDyKBG91Knt7NJKAxDsdNwwcjAtT6RnZYyNL4FM6G7jLVE3+0sbNNHI97dQegHvebHJgKNLwUPTrTfA4V5PIZqOybyFAlXcKbmks6SlsICXzKIq7XelVWJZl/YVcD/iE2gbuMtq4WAtyPe10npVxcXzMTBNSInv7xxt7LSZhKLixFwkCcCnudDSM7JV3dxmkhZGUROdsLwusUN7AXf3vKPimtmjjZhm5nmqPW63K3p70KlZNer1zngoiHRXfL9ZqUq8+H42m/b7Uq5tkEceCk4/FWo0eAXBJSe5ATxBG0jOyR64HXNLfwF22iOP/VvMVSRs3o8j19LKD4NHhofQqVnEALlIle+gBw3prJPsvk9MzgEtxp6PhYFxCB5jqJvftG8BULHApEw3cZZMwnPR6aS7nFmjjZhG5nlIl193W8SthWfLxxFkZSEnBtu1GQ3ABsge5Gmba7wt2CjgcEFim4WDcQrXKCACMNBsMlByMyzMtwMpUA3fZWRBoeAhn0cbNJnI9jdSelfHW9zkrA+mRneaYnp7e6tsXXyQ7ssdwEHBJyUMLQgeYSsm8P198QLYauMs4Gxf3Qa6nkdPvC24xdpXzFy/Yegyp4sQMw8hGCdzeAJfmUaRhnoibBJhK9rSoS6V6nSouci5zDdxltHFxZ3+SXgBW6TwAN+52leweAlOVXFf2nV9y3ccKnu8ZZjEeS/26KtXrJddlxBhIxJ2OeC8pqeIKHqoDpCQ5LUp2L5HEA9/nFztyK6MN3GVnQfC3KBKPJq1f27g/80AuI8j1dLGDQMNvghWz4ZADcJE28aMStw4OZBeAtdtqNvU0GgBZkzC0Tk6kV2E9INeDoX7RkevZQUCuh3zKbgN3WdLGffrq1RqXdGdJG5dv7Uygh6tI2fN2FPzmXrEYjyPP46wMpKpg2/SzsHa8qYBLizieDYfSq7DKnie9BCAV/9SxWU2pXqc6h3zKdAN3GW1c3AG5nhZFx3miMgsn1MMGVHxf/JsY5ilUq+yyB1zS8Mi9WKuVXFd6FcD6LeJYwy6WFs+0kEsGNHCXcTYubotcTwW1B+Ce7e+zOxU2gPAFKeGtBVxScvgVI3swlZKRPS4x5I0ZDdxl2s7G5VNFP3I9FbbbbYVnZVwcH3NCKDag6DganrDBSOXdXQ4HBBLkekCquMQAERrmY9bSwF1GGxe3Qq4n73GrpWGf3RXT01POysBmiJ+YAbM9VPPAExCnoSf4NaEDDKUk1yvWatyBIz8et1oa5mPW1cBdpqeNW6zVNExE4hrkesIqvv/o8FB6Fatmw+Fb9ubApjzgzYY0UcUFLmnoCRaqVaZoYSoN0blFeo7cKLmuhlvpNTZwl6lq424dHDALrBm5nqSS6yrchzKZIuasDGxGxfeLtZr0KmCyYq3GJuJA4n917JnL0RkwlZJtqf/MJYZ80HArvfYG7jLauLghcj0xes/KCAIlP0qQB3QksQHMhAKJtbeE7obQAaZScokxr4c8MLiBu4w2Lm6CXE/MkzBUOKZ0/uLFJAylV4G8KNh2ZW9PehUwn91o8IARsNQMExE6wFRKLrGvqLrDdGY3cJct4ljPrve0cdUi15Ox0+koPAA07nbT/mAClrHxGTaGNxuQmA2H0ksgdICxlOR6CkcHgPXS0MC1LGsziVvc6SjZu9OijasVuZ4AOwgUHoA7Gw71PApATnASLjaGXA9IaNg/l9ABptJwfSWYqYHBtDRwj442FuXTxsX1yPU2reS6Oycn0qtYtRiPI8/T81sEeVD2PG7tsDGlep2t+gFLzTwRoQNMpWEk1rKsPzJQA0MpaeDOhsN3G4y35lH0Xk2aRhtXIXK9jSo6jtPvS6/iMwj1sHnMT2HDmA8FLMv6P77ugTQp+UXN6TQwlZIGbnpn4F7lot2mjYurkOttjt4DcPf3lTy9R34UbLvCEaXYLN5ygGVZ/9JxXieP+mEqJUfiAkbKYQN3GW1cXIVcb3O2220NH0MrLo6PYx0PPZArFd9XmHHDbIVqlSlRgNABSJWSS4xTp2GefDZwl9HGxVXI9Tbkcaul8KyM6ekpZ2VABI1IiCDXA5Rg8y8AwK3ktoG7jDYuPotcbxMqvq/h2cKK+Wj0llYaJBQdR+HsKvKgvLtbdBzpVQCwOMcGAHBzOW/gLqONi0+R66Wu5LpKni0sW4zHP/u+kp19kTcM60HQQ0b2kG9K9tcDTKXkEivv7kovAVgbGrjLaOPiU+R66dJ7VkYQiD9qQG7RhYQg3n7IOSWbfwGm4hID1k7JlIxsA3cZbVysINdL15MwLNZq0qtY9f7oaBKG0qtATtlBoDDpRn4UazUOxgUAAMgEGrifpaqNSxlLHLleirbbbYUz8HG3q2F+GLn1gEgF0ngTAgAA6EcD9yqq2riPDg/ZNlcWuV5a7CDYOjiQXsWq2XDIAbgQVHScyt6e9CqQd3ajQV8AAABAORq419DWxpVeQq6R66Wi5Lo7JyfSq1jFWRkQx5EFUIJd9gAAADSjgftFetq4pXr9sZr5wRwi11u/gm07/b70Kj4j8jy28oUswhQowVsRAABALRq4N0EbFwlyvTVLQj2FxwKc7e+rfc6AnCh7nsJjZJBPpXqdXx4AAAA6Kel16mzgLrtot2fDofQqPlLyp5ZD5Hprtt1ua5gWXhF3uzHXGKQxIQVVOLoL+USiDaSKSwy4Pxq4t6InfKSNK4Vcb522mk270ZBexarp6ameSx25VbBthVcH8qzCqbjIJQ6NAVLFJQbcEw3c25oNBu+PjqRX8RFtXBHkemtT8f3tly+lV7FqPhq95d4VCpChQJtCtcoMKSCF7AMA8FlKupzZmox512rRxs0zcr31KLmuwrcvB+BCDzqPUIhcD5CioWAFANCGBu6d6QkiaeNuHrneGhRse6fT0XhWRhBk7vMIRiq5roZvaGBFeXe36DjSqwA2qux50ksATPY1lxhwVzRw74M2bp6R663BkzBUmFm8PzqahKH0KgDLYlgPivHmBAAA0EBJAU7P4Ntt0cbNLXK9+9put8u7u9KrWBV3u1l8yABTsbke1HrAmxM5o2RGVc+NB7BeX+m4xIDMoYG7FnpCSdq4m0Sudy92EGwdHEivYtVsODxnAgVq2EGgsKUOJIq1GrkzckVJrsfmvzBVsVaTXgKQPTRw14U2bj79SXoBGVZy3Z2TE+lVrOKsDGgjfjTB+6Ojab8vuwZcr+S6gueJPwwCdi1AfvALG0gP1xdwN0o6m3qG3e7jXatV8X0Nw4+WZe10Om/4YEwfud4dFWzbUZkURJ43jyLpVQAfFR1Htqi+GI8v2m2SbuWm/f5Wsyk141DZ2yvYNm8S5AQD1EB6CrYtvQQge2jgrt1ZEDz74QfpVVjWr23crE9B6kcP9y6SUE/hL+Oz/X1jPoxghofST70mYUhekwm/iE7MiU+VFwQuRQAAFo5JREFUApvBYbhAqvRcYtPTU+klADdCAzcN2tq4SvYAMRi53l1st9saHimsiLvdWMcAM3BJPC6RTYtwc7IfX5yKi5zQUxL8p8rSA3BPei4xIBMKtv1Ux291Mxq4yzgbN1fI9W5tq9m0Gw3pVayaDYfmfRgh6yq+L7t79Hw0Yt+0rJgNBvPRSOrVi7UaN2PIA97nQKr0XGL/R1kBWfCo1dJw1IxJDdxlevKB8u4uD9FTRa53O2XPE9zc/Srz0ShSM/YPXHogfcwow3rZctFuC746vzaQB3pCh3+xFzCMU7BtDQlFwsiQAoYpe97WwYH0Kkxr4C7T1cZttWjjpodc7xZKrvtEX0zAAbjQqWDb4pOtNNOzRTaHrfg++53DbAXb1rOLCGd8wTxf85QduLGCbSvpZuoZakvDu1ZLsBCzrFCtKvkTNxK53k0lHz0Kz8o4bzZ5IgeFxHfWmw2HXBrZMo8iwX1ACtVqRXrCFEiVqtCBeT2YR8+hGZZlTdnCErrRwN0YPcElbdz0kOvd1E6no+cp96X3R0dMJEEn8U9tLo0skq3iiofRQKpUhQ7M68E8qi4xqjzQjAbuJk37/YvjY+lVfEQbNyXkejey3W5X9vakV7Fq0uvl4ZMIWVRyXfFHcGyul0Wy55yUd3f5qQGDie95eknPCX3AuhQdR9UEgPEjSMguGrib9542runI9b7MDgINzxNWcAAuNBMf1pv0egyDZNEijie9nuACxN+6QEo0PG65ROIA8+jJzS2ic+hGA3fzFnGsJzqgjZsGcr0vKLnutmgv7LM4KwOaFWxbfJ8yhvWyS/bPTtWNGbBGqmrmPHeBeVRdYvlJK5A5NHCl0MY1G7nedQq27fT7Cs/KeOv7/CaGWhXfl71qFuOxbJ0T9xF3OovxWOrVi7WaeCoNpEFVZs2O/jAMJVzgJmjgyqKNazByvevoDPXO9vf5QQzNxB9ZT8KQadZMk41lH0q/gYG1K3uehtLTJX7GwDDavji4xKATDVxZtHENRq53JZ0H4MbdLqd8QrOi45R3d2XXQAk362T/BCt7ewXbFlwAsHbij1uWsfMXzKPqErOY14NKShq489Eobw3cZbRxTUWu93lbzabdaEivYhVnZUA/8Qcv89GIEm7WTcJQtiag7Q4NuI+i46j6ScMkEQxjB4GGEaRL09NT6SUAq2jg6kEb10jkep9R9rztly+lV7FqPhpFnie9CuALxLdwYljPDLJ/juLxNLBGNASBVGl7FMTTTSikpIF7cXzMdxBtXCOR660que4TfV+HHICLTKj4vvh3NkV1M8j+ORZrtZLrCi4AWJeCbf9F2S9mQgeYpOx54tuPrCC2gDZ6Grjvc9zAXUYb1zzker+TTAgrPCvjvNlkpwzoJz4VMhsOuVLMMBsMZDfh4uEhzLDVbKr6VTPp9aSXAKzTI2UxwXw04ocQVFHVwGVK5hJtXMOQ6/2OzrMy3h8dMYIE/YqOU9nbk10DV4pJZP80K77P6RnIuqLjaBvWY5IIJqn4PsN6wPVo4OqkrY1bkd7KKevI9X6z3W6LpxKfmvR6eT6yBxkivrOeJb0pG9ZL9k+zUK3yCwNZ97jVUjWsZ0lf18B6/bXdll7CKi4xqEIDVzNVbdydTocH6vdBrveRHQQaPnRWcAAuMkS8tzjp9eZRJLsGrNE8imQP9dO2FTpwK2XPU3UMrmVZs+GQT2kY47GOKaRli/GY/SuhBw1c/WjjGoNcz7Isq+S62/oeuC3GYz6DkBVlzxP/dcszavPIVnHLu7vs44uM0nM3texC328t4G5Krvvo8FB6FasI9aAKDVz9FnH839KTGZcqe3t0Ze6MXM8q2PbTMNRWVLEs663vs/EtskJ8soln1EYS/zMVn0IF7kbJ3dQK8SsaWBeFublFdA5NaOBmxSQM9RxpRRv3zsj1LKffV/jb9/zFCx4sICsKti3+dGUShgy3mmcRx7I/NTTsGgncVsX3NdxNrYi7XT6lYYbtdlvhOXuchAs99MyM0367ibMgWIzH0quwLNq495D3XE/nAbhxt8sDN2RIxffFJ14p4Zrqg+i3e7FWE8+sgVspua7O38ScVw4z6NyS22JYD5oomRmngXtDqs7GpY17N7nO9ewg0LaltMVZGcgg8a7ifDSi3mWqSRjKPkJ8yAcyskPt1iLz0YibKxig5Lo7JyfSq/iMxXhMdA4laOBmEW3crMtvrlf2PIVfzIvxOPI86VUAt1ByXfGhV4b1zCYb2lb29vhtgUwo2LbOrUUsy3rHzRWyr+S6jtZ4mt1IoAQN3OyijZtpOc31io7zRF8QkIR6fAAhW8RPzLCod5lO/M9Xw5scuF4S6ok/ZfkszjWCAZJQT+EwbILoHErQwM0u2riZlsdcT21L5bzZZL9bZI545DEbDrlwzDbt9+ejkeACxJvmwPU0h3qWZf1Pu80zS2Sa8lAv7nbnUSS9CoAGbubRxs2uPOZ6Os/KuDg+Fp9JAW7LDgLxn7lcOHkgW7Uu1mol1xVcAHCNouNoDvUW4zHb+SPTyp6nOdSzGNaDDjRwzUAbN6Nyl+s9brUqe3vSq1g16fXOmQdBBj1QMCDN5np5IJ7eMrIHncqe92wwUBvqWQzrIeO2mk3n9WvNoR7DelCCBq4ZaONmVL5yPTsIHh0eSq9iFQfgIqOKjiOekk96PX7O5sFsMJgNh4ILqPg+XQBo87jVUp44MKyH7Er27dl++VJ6IV/AsB40oIFrEtq4WZSjXK/kutv6flwuxmNGhZFRDxXk0Qzr5YfsyF6hWuWBIfRIurcKH1WuYFgPGVXx/b9FkfjDyy9iWA8a0MA1D23czMlLrqf2rIy3vs+W/8go8RMzOGMxV8QzXKq4UGKr2Xw2GJR3d6UX8gXz0YhJImRO0XGehuHTV68U3jWsWIzHbOMDDWjgmoc2bubkJddz+n0NHzcrzl+84NMHGVX2PPFrahKGPJTLj3kUTU9PBRdQqteLjiO4AKDsed9G0fbLl/oTB8uy9NwSADdRsO3HrdazwUD/mF6CeVhoUPF9GrhGUtXG/Wu7TRv3ernI9XQegBt3u2w6g+wSH9azFAxwYcM4PQO5lZzI6bx+Lf5A5YYmvR5PLpEVSaL3tyh6dHiYidDcYh4WOtDANZueNm6xVnvEJ961zM/17CCwGw3pVazirAxkWsG2xS+r+WhECTdvxP/ENcTZyJvLRE9/8fbSYjz+b0JwZEEWE70E9xHQYKfT0XDh0MBNySKO9ZT9tw4Oyp4nvQq9DM/1yp63c3IivYpVi/E44k2JLNOQbjCsl0OLOJZtBHB6BjamYNtbzea3UZStRC/xvtViL38oV3LdnU7nuw8fMpfoWaQY0KHi+xpK6zRwUxV3OrLb4CzjbNxrmJzrFR3nico7/8jzmBNGpmnI9cQrmRDxQfrPXcMx0DBbxfefhuF3Hz5sv3yZldbtsunpKduMQK2i4ySJ+bMffhBvHtwNKQY0oIGbH7RxM+FP0gtIi9oDcM/29zkAF5lWcl3xDStnwyHXUT5NwnAxHgt+tlf29oqOwywS1qtg2xXfL3texfcV/nS5ucV4TD0QCpVct+x5dhCI/4C5P1IMaEADNz/mUfS+1dp++VJ6IZZlWVsHB5Mw5A/9U8bmetvttsJv7ovjY4aMkHUajg7gOsqzSRjKDlk88H3GkXB/Bdv+2vPKnlf2PIW/WO7mLAhIvaFE0XHKv15iWRx9/az3R0fc0EIcDdy8uWi3K76vZFeQnU7njevyeGOFmbne41ZL4Wj99PRUz8aTwJ1p2F+MzfXy7KLdlv2E32o2yfVwBwXbLrnub/9jSpZ3Ke52xQ+3QZ4VHafkun923a89r+S6GoaJ1mt6esoZuBBHAzefzoLg2WCg4XM1aeOSq6wwMNer+P6jw0PpVaxajMcX7TZnuCANs8FgY99qdhCIf6BPej3mQfJsNhjMRyPB4YtirVb2PCYmcI2S6xZsu+g4XzlO0XGSuEH8wzNVs+GQH9nYmOQXdXKhlVz3j7atZJAkPYvx+K2CB6sADdx8oo2rnGm5XnK4lfQqPqNQrT599Up6FTBT9Pz5xj7XNJyYwbAefgnDrYMDwQXYQcCPiZt7bPSASRLbJX/9leMYU/e7lcV4/LPvMzch4ivHMfsSS2K7y7/WECiI4Ng9aEADN89o42pmVK6n9qwMwAxFxxH/KF+Mx/S8cNFuy+Z6Fd8v2DY/Jm5I4RA91ivyPMaopRRrNS4x43HsHjSggQvauGr9UXoB6/QkDPP5nBzYjIcKhvUmYcgXOeZRNBsOBRdQqFY1bDQJaEDiAKSKY/egBA1cJG1c6VV8tHVwwC5nl8zJ9cqeJz5JBJiNEi70EL/J0XAwNCDu/MUL8YsRMFjc7TKQAg1o4CJx0W5PT0+lV/HRTqdT+HWjhpwzJ9cDkKqK74vPw1LCxSXxhLdUr1/uqgbkU9ztcjY0kJ5Jr3em4JEqQAMXy86CYDEeS6/Csn5t40qvQgVyPQA3oqGEy1QILs2jaNLrya6BkT3kWdztkjgA6ZkNh1xiUIIGLpbRxlWIXA/AlxVsW8PsPbkelomP7GlopgMiCPWAVM2GQw7AhRI0cPEp2rjakOsB+DIN+cV8NGJrdiwTL2VzegbyiVAPSBWhHvSggYurqGrj0qEh1wPwZRo+K9nFCSsWcRx3u7Jr0NBPBzaJUA9IVdztEupBDxq4uIqqNu6jw8OS60qvQhK5HoAvKLmu+IkZloLSJRQSf1dU9vY4PQP5cf7iBaEekJ4kNyfUgxJKGriL8VhPfoRlF+32bDiUXsVHSgZLpZDrAfgCDcN609PTeRRJrwLqTMJQvALwgCoucmAxHp/t7zM3DaTn/dERuTn0oIGLm9DzqVWq1x/nOP8l1wNwnYJta9hBjBMzcBXxXfY0BN9AqhbjceR5fA4DKUly83c5viOFQkoauJNeT/yXHq4xGwzeHx1Jr+KjPLdxyfUAXKfi+yq+1PlGxxXEB4iKtVrZ82TXAKRnNhz+w3E4tghIyXw0IjeHNnoauHrGwXCVd60WbVxx5HoArqPhJNy422X8HleZDQbz0Uh2DRouEyANF8fHb1yXT2AgJZNe743rkptDFRq4uC098Wtu27jkegCuVHSc8u6u9Crkz0aAcuLvkIrvF2xbdg3Aei3G45///vdzauZAOhbj8fmLFz/7PrEFtKGBi9uijSuOXA/AlTRsHLYYj/lSx/XEq7iFalXDNpTAukx6vX84Dp+9QEpmw2HkeeJfXsCnaODibmjjyiLXA3AlDe1CdpzBF82jSPyXhIYQHLi/ZEyPGSIgPe+PjujeQicauLgPPVFsDtu45HoAPk/JiRnkergJ8fdJqV4vOo7sGoB7YkwPSNX09PTHb77h3FuoRQMX90EbVxC5HoDPe6jgkct8NOKBNm5CfIs9i5E9ZNl8NIqeP2dMD0jJYjw+29+PPG8eRdJrAT6PBi7ujzauFHI9AJ9RdBwNX+3/v737S20qDQM4fGZUKIhtRAoDc2FcQeMKrCuwrmDiCowrMF2BdgfNDuIKTHaQwlxIByERBFHKnChhgiEyF6l1FBn/NOn3vafPc+fde5ETm9/53nM8eobvNBsO3z15knaGHPbW4UctHt5/WK9Per3Us0AFzcfjN7u7f9Xryc+Vw/+wgcuy5JNlz9U2rq4HfMV6Hi8ByOEQFlEk/7R4ewaxnOQGd1BgRcpO53mj8brd1inInA1clsU2bhK6HvAVOWwUTvp96yp8v3fd7nw8TjtDDtvr8E0nRU9ugBUpO53DGzdeNpv+kiF/NnBZLtu4Z0/XA750eXv70vXrqadI/yYEYpmXZfJ7vFfu3PH2DHKm6MGqKXrEYgOXVcgn0Z6TbVxdD/hSJo8JS95oCCf5Km6RzQ47fGE2Gr168EDRgxVZRPNnV68qesRiA5dVyG0bt/L33XU94DMXarUcnhFWdjp+efKjcljFzWGHHf5r0u+/uHv3sF4/evzY9yos3fTg4OW9e89qNdGccK61WjZwWZHX7fZsNEo9xbFMDqWujq4HfObKzk4Od+1yOHhFRMnXty9dv355ezvtDFAUxWw0erO7e3jjxnB72yEIWLr5eHy0t/f85s3njUby/3rgJ1yq1zfz2E+0gVtV+eTay7duVfvWu64HfCaHr7z5eOxXKD8nhx9XmWyycz7Nx+Oy0xnevn1Yr79ut+0DwtKVnc6Lu3ef1WqvWq3pYJB6HPhJNnBZtUmvd7S3l3qKY5vtdoW3cS+mHgDIyFqjsba1lXqKLNIMQU0Hg9lolPbFL7U//njVarnzzFla3A552+36dQSrsLjEJr3eu27X1zsVcK3VunzrVuopbOBW35t2e31nJ4dXMl7Y2Ph9f39Y0a0a5/WATzI5Z6TrcRo5fH5yeEgl58H04GCxCfisVnvZbIp6sFyz0ehob29xOu9ls1nu74t6VIANXM7MvCzzSbcV3sZ1Xg/4JIeuNxuNbLVwGn/v728+fJh2hmutVg55kUqajUaTXs+5IViRk0ts0uvZZKeSbOBylhbbuNfu3089SFEUxWa7/bbbrd53u64HHKs1mzn8H3/0+HHqEYhtNhxODw7SbpSvbW2tNRoKNcsy6feng8F0MBAaYBWmBweTXs8lxnlgA5ezZxt31XQ94Nh6HpuD3oTL6ZX7+789epR2hlqz+aqiR/05A4uQNxsOF6Eh9ThQNZN+f3F9ucQ4V2zgksRiG7f+9GnqQYri4zZuxY6S6HpAURTFpXr9yp07qac4/js79RSEp+sRyGw0ej8cTgeDD2U56fXeD4e+BmGJXGJwwgYuqdjGXSldDyiKoriax0l4jyRjKeZl+e7Jk7Sp+sLGRq3Z9JFmYdLvF0XxoSwX29n/DAYfylJfgGVxicE32cAlLdu4q6PrAUWRxxsziqJw745ledvtJj+Cur6zk0PXez8cvtndTT3FufBFRNAUzglbnGdmUetO/jkdDOzxwXeygUtyuW3jVukG/C9/pp4ASO5CrbbWaKSeoph/vM0Op5fJp9oPfgAAYHV0PQAAAACI59fUAwAAAAAAP0zXAwAAAIB4dD0AAAAAiEfXAwAAAIB4dD0AAAAAiEfXAwAAAIB4dD0AAAAAiEfXAwAAAIB4dD0AAAAAiEfXAwAAAIB4dD0AAAAAiEfXAwAAAIB4dD0AAAAAiEfXAwAAAIB4dD0AAAAAiEfXAwAAAIB4dD0AAAAAiEfXAwAAAIB4dD0AAAAAiEfXAwAAAIB4dD0AAAAAiEfXAwAAAIB4dD0AAAAAiEfXAwAAAIB4dD0AAAAAiEfXAwAAAIB4dD0AAAAAiEfXAwAAAIB4dD0AAAAAiEfXAwAAAIB4dD0AAAAAiEfXAwAAAIB4dD0AAAAAiEfXAwAAAIB4dD0AAAAAiEfXAwAAAIB4dD0AAAAAiEfXAwAAAIB4dD0AAAAAiEfXAwAAAIB4dD0AAAAAiEfXAwAAAIB4dD0AAAAAiEfXAwAAAIB4dD0AAAAAiEfXAwAAAIB4dD0AAAAAiEfXAwAAAIB4dD0AAAAAiEfXAwAAAIB4dD0AAAAAiEfXAwAAAIB4dD0AAAAAiEfXAwAAAIB4dD0AAAAAiEfXAwAAAIB4dD0AAAAAiEfXAwAAAIB4dD0AAAAAiEfXAwAAAIB4dD0AAAAAiEfXAwAAAIB4dD0AAAAAiEfXAwAAAIB4dD0AAAAAiOfi5sOHqWcAAAAAAH7Mv19vGSLFxbbMAAAAAElFTkSuQmCC;" vertex="1" parent="1">
          <mxGeometry x="250" y="309.45" width="80.47" height="21.1" as="geometry" />
        </mxCell>
        <mxCell id="ajrHWoRtGCCCD4pksy_T-9" value="" style="edgeStyle=orthogonalEdgeStyle;rounded=0;orthogonalLoop=1;jettySize=auto;html=1;" edge="1" parent="1" source="ajrHWoRtGCCCD4pksy_T-6" target="ajrHWoRtGCCCD4pksy_T-5">
          <mxGeometry relative="1" as="geometry" />
        </mxCell>
        <mxCell id="ajrHWoRtGCCCD4pksy_T-6" value="" style="sketch=0;pointerEvents=1;shadow=0;dashed=0;html=1;strokeColor=none;fillColor=#505050;labelPosition=center;verticalLabelPosition=bottom;verticalAlign=top;outlineConnect=0;align=center;shape=mxgraph.office.servers.cluster_server;" vertex="1" parent="1">
          <mxGeometry x="100" y="290.5" width="49" height="59" as="geometry" />
        </mxCell>
        <mxCell id="ajrHWoRtGCCCD4pksy_T-12" value="" style="shape=image;verticalLabelPosition=bottom;labelBackgroundColor=default;verticalAlign=top;aspect=fixed;imageAspect=0;editableCssRules=.*;image=data:image/svg+xml,PHN2ZyB4bWw6c3BhY2U9InByZXNlcnZlIiBzdHlsZT0iZW5hYmxlLWJhY2tncm91bmQ6bmV3IDAgMCAxNDIuNSAxNDUuNjsiIHZpZXdCb3g9IjAgMCAxNDIuNDk5OTg0NzQxMjEwOTQgMTQ1LjYwMDAwNjEwMzUxNTYyIiB5PSIwcHgiIHg9IjBweCIgeG1sbnM6eGxpbms9Imh0dHA6Ly93d3cudzMub3JnLzE5OTkveGxpbmsiIHhtbG5zPSJodHRwOi8vd3d3LnczLm9yZy8yMDAwL3N2ZyIgaWQ9IkxheWVyXzEiIHZlcnNpb249IjEuMSIgd2lkdGg9IjE0Mi40OTk5ODQ3NDEyMTA5NCIgaGVpZ2h0PSIxNDUuNjAwMDA2MTAzNTE1NjIiPiYjeGE7PHN0eWxlIHR5cGU9InRleHQvY3NzIj4mI3hhOwkuc3Qwe2ZpbGw6IzU2NTY1Njt9JiN4YTsJLnN0MXtmaWxsOnVybCgjU1ZHSURfMV8pO30mI3hhOzwvc3R5bGU+JiN4YTs8Zz4mI3hhOwk8cGF0aCBkPSJNMjguNywxMzEuNWMtMC4zLDcuOS02LjYsMTQuMS0xNC40LDE0LjFDNi4xLDE0NS42LDAsMTM5LDAsMTMwLjlzNi42LTE0LjcsMTQuNy0xNC43YzMuNiwwLDcuMiwxLjYsMTAuMiw0LjQmI3hBOyYjOTsmIzk7bC0yLjMsMi45Yy0yLjMtMi01LjEtMy40LTcuOS0zLjRjLTUuOSwwLTEwLjgsNC44LTEwLjgsMTAuOGMwLDYuMSw0LjYsMTAuOCwxMC40LDEwLjhjNS4yLDAsOS4zLTMuOCwxMC4yLTguOEgxMi42di0zLjVoMTYuMSYjeEE7JiM5OyYjOTtWMTMxLjV6IiBjbGFzcz0ic3QwIi8+JiN4YTsJPHBhdGggZD0iTTQyLjMsMTI5LjVoLTIuMmMtMi40LDAtNC40LDItNC40LDQuNHYxMS40aC0zLjl2LTE5LjZIMzV2MS42YzEuMS0xLjEsMi43LTEuNiw0LjYtMS42aDQuMkw0Mi4zLDEyOS41eiIgY2xhc3M9InN0MCIvPiYjeGE7CTxwYXRoIGQ9Ik02My43LDE0NS4zaC0zLjR2LTIuNWMtMi42LDIuNS02LjYsMy43LTEwLjcsMS45Yy0zLTEuMy01LjMtNC4xLTUuOS03LjRjLTEuMi02LjMsMy43LTExLjksOS45LTExLjkmI3hBOyYjOTsmIzk7YzIuNiwwLDUsMS4xLDYuNywyLjh2LTIuNWgzLjRWMTQ1LjN6IE01OS43LDEzN2MwLjktNC0yLjEtNy42LTYtNy42Yy0zLjQsMC02LjEsMi44LTYuMSw2LjFjMCwzLjgsMy4zLDYuNyw3LjIsNi4xJiN4QTsmIzk7JiM5O0M1Ny4xLDE0MS4yLDU5LjEsMTM5LjMsNTkuNywxMzd6IiBjbGFzcz0ic3QwIi8+JiN4YTsJPHBhdGggZD0iTTcxLjUsMTI0Ljd2MS4xaDYuMnYzLjRoLTYuMnYxNi4xaC0zLjh2LTIwLjVjMC00LjMsMy4xLTYuOCw3LTYuOGg0LjdsLTEuNiwzLjdoLTMuMSYjeEE7JiM5OyYjOTtDNzIuOSwxMjEuNiw3MS41LDEyMyw3MS41LDEyNC43eiIgY2xhc3M9InN0MCIvPiYjeGE7CTxwYXRoIGQ9Ik05OC41LDE0NS4zaC0zLjN2LTIuNWMtMi42LDIuNS02LjYsMy43LTEwLjcsMS45Yy0zLTEuMy01LjMtNC4xLTUuOS03LjRjLTEuMi02LjMsMy43LTExLjksOS45LTExLjkmI3hBOyYjOTsmIzk7YzIuNiwwLDUsMS4xLDYuNywyLjh2LTIuNWgzLjR2MTkuNkg5OC41eiBNOTQuNSwxMzdjMC45LTQtMi4xLTcuNi02LTcuNmMtMy40LDAtNi4xLDIuOC02LjEsNi4xYzAsMy44LDMuMyw2LjcsNy4yLDYuMSYjeEE7JiM5OyYjOTtDOTIsMTQxLjIsOTMuOSwxMzkuMyw5NC41LDEzN3oiIGNsYXNzPSJzdDAiLz4mI3hhOwk8cGF0aCBkPSJNMTE5LjQsMTMzLjh2MTEuNWgtMy45di0xMS42YzAtMi40LTItNC40LTQuNC00LjRjLTIuNSwwLTQuNCwyLTQuNCw0LjR2MTEuNmgtMy45di0xOS42aDMuMnYxLjcmI3hBOyYjOTsmIzk7YzEuNC0xLjMsMy4zLTIsNS4yLTJDMTE1LjgsMTI1LjUsMTE5LjQsMTI5LjIsMTE5LjQsMTMzLjh6IiBjbGFzcz0ic3QwIi8+JiN4YTsJPHBhdGggZD0iTTE0Mi40LDE0NS4zaC0zLjN2LTIuNWMtMi42LDIuNS02LjYsMy43LTEwLjcsMS45Yy0zLTEuMy01LjMtNC4xLTUuOS03LjRjLTEuMi02LjMsMy43LTExLjksOS45LTExLjkmI3hBOyYjOTsmIzk7YzIuNiwwLDUsMS4xLDYuNywyLjh2LTIuNWgzLjR2MTkuNkgxNDIuNHogTTEzOC40LDEzN2MwLjktNC0yLjEtNy42LTYtNy42Yy0zLjQsMC02LjEsMi44LTYuMSw2LjFjMCwzLjgsMy4zLDYuNyw3LjIsNi4xJiN4QTsmIzk7JiM5O0MxMzUuOSwxNDEuMiwxMzcuOCwxMzkuMywxMzguNCwxMzd6IiBjbGFzcz0ic3QwIi8+JiN4YTs8L2c+JiN4YTs8bGluZWFyR3JhZGllbnQgZ3JhZGllbnRUcmFuc2Zvcm09Im1hdHJpeCgxIDAgMCAtMSAwIDE0OC42KSIgeTI9IjExMy4zNDE1IiB4Mj0iNzEuMjUiIHkxPSIxMC40ODkzIiB4MT0iNzEuMjUiIGdyYWRpZW50VW5pdHM9InVzZXJTcGFjZU9uVXNlIiBpZD0iU1ZHSURfMV8iPiYjeGE7CTxzdG9wIHN0eWxlPSJzdG9wLWNvbG9yOiNGQ0VFMUYiIG9mZnNldD0iMCIvPiYjeGE7CTxzdG9wIHN0eWxlPSJzdG9wLWNvbG9yOiNGMTVCMkEiIG9mZnNldD0iMSIvPiYjeGE7PC9saW5lYXJHcmFkaWVudD4mI3hhOzxwYXRoIGQ9Ik0xMjIuOSw0OS45Yy0wLjItMS45LTAuNS00LjEtMS4xLTYuNWMtMC42LTIuNC0xLjYtNS0yLjktNy44Yy0xLjQtMi43LTMuMS01LjYtNS40LTguMyYjeEE7JiM5O2MtMC45LTEuMS0xLjktMi4xLTIuOS0zLjJjMS42LTYuMy0xLjktMTEuOC0xLjktMTEuOGMtNi4xLTAuNC05LjksMS45LTExLjMsMi45Yy0wLjItMC4xLTAuNS0wLjItMC43LTAuM2MtMS0wLjQtMi4xLTAuOC0zLjItMS4yJiN4QTsmIzk7Yy0xLjEtMC4zLTIuMi0wLjctMy4zLTAuOWMtMS4xLTAuMy0yLjMtMC41LTMuNS0wLjdjLTAuMiwwLTAuNC0wLjEtMC42LTAuMUM4My41LDMuNiw3NS45LDAsNzUuOSwwYy04LjcsNS42LTEwLjQsMTMuMS0xMC40LDEzLjEmI3hBOyYjOTtzMCwwLjItMC4xLDAuNGMtMC41LDAuMS0wLjksMC4zLTEuNCwwLjRjLTAuNiwwLjItMS4zLDAuNC0xLjksMC43Yy0wLjYsMC4zLTEuMywwLjUtMS45LDAuOGMtMS4zLDAuNi0yLjUsMS4yLTMuOCwxLjkmI3hBOyYjOTtjLTEuMiwwLjctMi40LDEuNC0zLjUsMi4yYy0wLjItMC4xLTAuMy0wLjItMC4zLTAuMmMtMTEuNy00LjUtMjIuMSwwLjktMjIuMSwwLjljLTAuOSwxMi41LDQuNywyMC4zLDUuOCwyMS43JiN4QTsmIzk7Yy0wLjMsMC44LTAuNSwxLjUtMC44LDIuM2MtMC45LDIuOC0xLjUsNS43LTEuOSw4LjdjLTAuMSwwLjQtMC4xLDAuOS0wLjIsMS4zYy0xMC44LDUuMy0xNCwxNi4zLTE0LDE2LjNjOSwxMC40LDE5LjYsMTEsMTkuNiwxMSYjeEE7JiM5O2wwLDBjMS4zLDIuNCwyLjksNC43LDQuNiw2LjhjMC43LDAuOSwxLjUsMS43LDIuMywyLjZjLTMuMyw5LjQsMC41LDE3LjMsMC41LDE3LjNjMTAuMSwwLjQsMTYuNy00LjQsMTguMS01LjVjMSwwLjMsMiwwLjYsMywwLjkmI3hBOyYjOTtjMy4xLDAuOCw2LjMsMS4zLDkuNCwxLjRjMC44LDAsMS42LDAsMi40LDBoMC40SDgwaDAuNUg4MWwwLDBjNC43LDYuOCwxMy4xLDcuNywxMy4xLDcuN2M1LjktNi4zLDYuMy0xMi40LDYuMy0xMy44bDAsMCYjeEE7JiM5O2MwLDAsMCwwLDAtMC4xczAtMC4yLDAtMC4ybDAsMGMwLTAuMSwwLTAuMiwwLTAuM2MxLjItMC45LDIuNC0xLjgsMy42LTIuOGMyLjQtMi4xLDQuNC00LjYsNi4yLTcuMmMwLjItMC4yLDAuMy0wLjUsMC41LTAuNyYjeEE7JiM5O2M2LjcsMC40LDExLjQtNC4yLDExLjQtNC4yYy0xLjEtNy01LjEtMTAuNC01LjktMTFsMCwwYzAsMCwwLDAtMC4xLTAuMWwtMC4xLTAuMWwwLDBsLTAuMS0wLjFjMC0wLjQsMC4xLTAuOCwwLjEtMS4zJiN4QTsmIzk7YzAuMS0wLjgsMC4xLTEuNSwwLjEtMi4zdi0wLjZ2LTAuM3YtMC4xYzAtMC4yLDAtMC4xLDAtMC4ydi0wLjV2LTAuNmMwLTAuMiwwLTAuNCwwLTAuNnMwLTAuNC0wLjEtMC42bC0wLjEtMC42bC0wLjEtMC42JiN4QTsmIzk7Yy0wLjEtMC44LTAuMy0xLjUtMC40LTIuM2MtMC43LTMtMS45LTUuOS0zLjQtOC40Yy0xLjYtMi42LTMuNS00LjgtNS43LTYuOGMtMi4yLTEuOS00LjYtMy41LTcuMi00LjZjLTIuNi0xLjItNS4yLTEuOS03LjktMi4yJiN4QTsmIzk7Yy0xLjMtMC4yLTIuNy0wLjItNC0wLjJoLTAuNWgtMC4xaC0wLjJoLTAuMmgtMC41Yy0wLjIsMC0wLjQsMC0wLjUsMGMtMC43LDAuMS0xLjQsMC4yLTIsMC4zYy0yLjcsMC41LTUuMiwxLjUtNy40LDIuOCYjeEE7JiM5O2MtMi4yLDEuMy00LjEsMy01LjcsNC45cy0yLjgsMy45LTMuNiw2LjFjLTAuOCwyLjEtMS4zLDQuNC0xLjQsNi41YzAsMC41LDAsMS4xLDAsMS42YzAsMC4xLDAsMC4zLDAsMC40djAuNGMwLDAuMywwLDAuNSwwLjEsMC44JiN4QTsmIzk7YzAuMSwxLjEsMC4zLDIuMSwwLjYsMy4xYzAuNiwyLDEuNSwzLjgsMi43LDUuNHMyLjUsMi44LDQsMy44czMsMS43LDQuNiwyLjJjMS42LDAuNSwzLjEsMC43LDQuNSwwLjZjMC4yLDAsMC40LDAsMC41LDAmI3hBOyYjOTtjMC4xLDAsMC4yLDAsMC4zLDBzMC4yLDAsMC4zLDBjMC4yLDAsMC4zLDAsMC41LDBoMC4xaDAuMWMwLjEsMCwwLjIsMCwwLjMsMGMwLjIsMCwwLjQtMC4xLDAuNS0wLjFjMC4yLDAsMC4zLTAuMSwwLjUtMC4xJiN4QTsmIzk7YzAuMy0wLjEsMC43LTAuMiwxLTAuM2MwLjYtMC4yLDEuMi0wLjUsMS44LTAuN2MwLjYtMC4zLDEuMS0wLjYsMS41LTAuOWMwLjEtMC4xLDAuMy0wLjIsMC40LTAuM2MwLjUtMC40LDAuNi0xLjEsMC4yLTEuNiYjeEE7JiM5O2MtMC40LTAuNC0xLTAuNS0xLjUtMC4zQzg4LDc0LDg3LjksNzQsODcuNyw3NC4xYy0wLjQsMC4yLTAuOSwwLjQtMS4zLDAuNWMtMC41LDAuMS0xLDAuMy0xLjUsMC40Yy0wLjMsMC0wLjUsMC4xLTAuOCwwLjEmI3hBOyYjOTtjLTAuMSwwLTAuMywwLTAuNCwwYy0wLjEsMC0wLjMsMC0wLjQsMHMtMC4zLDAtMC40LDBjLTAuMiwwLTAuMywwLTAuNSwwYzAsMC0wLjEsMCwwLDBoLTAuMWgtMC4xYy0wLjEsMC0wLjEsMC0wLjIsMCYjeEE7JiM5O3MtMC4zLDAtMC40LTAuMWMtMS4xLTAuMi0yLjMtMC41LTMuNC0xYy0xLjEtMC41LTIuMi0xLjItMy4xLTIuMWMtMS0wLjktMS44LTEuOS0yLjUtMy4xYy0wLjctMS4yLTEuMS0yLjUtMS4zLTMuOCYjeEE7JiM5O2MtMC4xLTAuNy0wLjItMS40LTAuMS0yLjFjMC0wLjIsMC0wLjQsMC0wLjZjMCwwLjEsMCwwLDAsMHYtMC4xdi0wLjFjMC0wLjEsMC0wLjIsMC0wLjNjMC0wLjQsMC4xLTAuNywwLjItMS4xYzAuNS0zLDItNS45LDQuMy04LjEmI3hBOyYjOTtjMC42LTAuNiwxLjItMS4xLDEuOS0xLjVjMC43LTAuNSwxLjQtMC45LDIuMS0xLjJjMC43LTAuMywxLjUtMC42LDIuMy0wLjhzMS42LTAuNCwyLjQtMC40YzAuNCwwLDAuOC0wLjEsMS4yLTAuMSYjeEE7JiM5O2MwLjEsMCwwLjIsMCwwLjMsMGgwLjNoMC4yYzAuMSwwLDAsMCwwLDBoMC4xaDAuM2MwLjksMC4xLDEuOCwwLjIsMi42LDAuNGMxLjcsMC40LDMuNCwxLDUsMS45YzMuMiwxLjgsNS45LDQuNSw3LjUsNy44JiN4QTsmIzk7YzAuOCwxLjYsMS40LDMuNCwxLjcsNS4zYzAuMSwwLjUsMC4xLDAuOSwwLjIsMS40djAuM1Y2NmMwLDAuMSwwLDAuMiwwLDAuM2MwLDAuMSwwLDAuMiwwLDAuM3YwLjN2MC4zYzAsMC4yLDAsMC42LDAsMC44JiN4QTsmIzk7YzAsMC41LTAuMSwxLTAuMSwxLjVjLTAuMSwwLjUtMC4xLDEtMC4yLDEuNXMtMC4yLDEtMC4zLDEuNWMtMC4yLDEtMC42LDEuOS0wLjksMi45Yy0wLjcsMS45LTEuNywzLjctMi45LDUuMyYjeEE7JiM5O2MtMi40LDMuMy01LjcsNi05LjQsNy43Yy0xLjksMC44LTMuOCwxLjUtNS44LDEuOGMtMSwwLjItMiwwLjMtMywwLjNIODFoLTAuMmgtMC4zSDgwaC0wLjNjMC4xLDAsMCwwLDAsMGgtMC4xJiN4QTsmIzk7Yy0wLjUsMC0xLjEsMC0xLjYtMC4xYy0yLjItMC4yLTQuMy0wLjYtNi40LTEuMmMtMi4xLTAuNi00LjEtMS40LTYtMi40Yy0zLjgtMi03LjItNC45LTkuOS04LjJjLTEuMy0xLjctMi41LTMuNS0zLjUtNS40JiN4QTsmIzk7cy0xLjctMy45LTIuMy01LjljLTAuNi0yLTAuOS00LjEtMS02LjJ2LTAuNHYtMC4xdi0wLjF2LTAuMlY2MHYtMC4xdi0wLjF2LTAuMnYtMC41VjU5bDAsMHYtMC4yYzAtMC4zLDAtMC41LDAtMC44JiN4QTsmIzk7YzAtMSwwLjEtMi4xLDAuMy0zLjJjMC4xLTEuMSwwLjMtMi4xLDAuNS0zLjJjMC4yLTEuMSwwLjUtMi4xLDAuOC0zLjJjMC42LTIuMSwxLjMtNC4xLDIuMi02YzEuOC0zLjgsNC4xLTcuMiw2LjgtOS45JiN4QTsmIzk7YzAuNy0wLjcsMS40LTEuMywyLjItMS45YzAuMy0wLjMsMS0wLjksMS44LTEuNGMwLjgtMC41LDEuNi0xLDIuNS0xLjRjMC40LTAuMiwwLjgtMC40LDEuMy0wLjZjMC4yLTAuMSwwLjQtMC4yLDAuNy0wLjMmI3hBOyYjOTtjMC4yLTAuMSwwLjQtMC4yLDAuNy0wLjNjMC45LTAuNCwxLjgtMC43LDIuNy0xYzAuMi0wLjEsMC41LTAuMSwwLjctMC4yYzAuMi0wLjEsMC41LTAuMSwwLjctMC4yYzAuNS0wLjEsMC45LTAuMiwxLjQtMC40JiN4QTsmIzk7YzAuMi0wLjEsMC41LTAuMSwwLjctMC4yYzAuMiwwLDAuNS0wLjEsMC43LTAuMWMwLjIsMCwwLjUtMC4xLDAuNy0wLjFsMC40LTAuMWwwLjQtMC4xYzAuMiwwLDAuNS0wLjEsMC43LTAuMSYjeEE7JiM5O2MwLjMsMCwwLjUtMC4xLDAuOC0wLjFjMC4yLDAsMC42LTAuMSwwLjgtMC4xYzAuMiwwLDAuMywwLDAuNS0wLjFoMC4zaDAuMmgwLjJjMC4zLDAsMC41LDAsMC44LTAuMWgwLjRjMCwwLDAuMSwwLDAsMGgwLjFoMC4yJiN4QTsmIzk7YzAuMiwwLDAuNSwwLDAuNywwYzAuOSwwLDEuOCwwLDIuNywwYzEuOCwwLjEsMy42LDAuMyw1LjMsMC42YzMuNCwwLjYsNi43LDEuNyw5LjYsMy4yYzIuOSwxLjQsNS42LDMuMiw3LjgsNS4xJiN4QTsmIzk7YzAuMSwwLjEsMC4zLDAuMiwwLjQsMC40YzAuMSwwLjEsMC4zLDAuMiwwLjQsMC40YzAuMywwLjIsMC41LDAuNSwwLjgsMC43YzAuMywwLjIsMC41LDAuNSwwLjgsMC43YzAuMiwwLjMsMC41LDAuNSwwLjcsMC44JiN4QTsmIzk7YzEsMSwxLjksMi4xLDIuNywzLjFjMS42LDIuMSwyLjksNC4yLDMuOSw2LjJjMC4xLDAuMSwwLjEsMC4yLDAuMiwwLjRjMC4xLDAuMSwwLjEsMC4yLDAuMiwwLjRzMC4yLDAuNSwwLjQsMC43JiN4QTsmIzk7YzAuMSwwLjIsMC4yLDAuNSwwLjMsMC43YzAuMSwwLjIsMC4yLDAuNSwwLjMsMC43YzAuNCwwLjksMC43LDEuOCwxLDIuN2MwLjUsMS40LDAuOCwyLjYsMS4xLDMuNmMwLjEsMC40LDAuNSwwLjcsMC45LDAuNyYjeEE7JiM5O2MwLjUsMCwwLjgtMC40LDAuOC0wLjlDMTIzLDUyLjcsMTIzLDUxLjQsMTIyLjksNDkuOXoiIGNsYXNzPSJzdDEiLz4mI3hhOzwvc3ZnPg==;" vertex="1" parent="1">
          <mxGeometry x="420" y="298.40999999999997" width="42" height="43.18" as="geometry" />
        </mxCell>
      </root>
    </mxGraphModel>
  </diagram>
</mxfile>
